<svg version="1.1" xmlns="http://www.w3.org/2000/svg" x="0px" y="0px"
	 width="137px" height="22px" viewBox="0 0 137 22" xml:space="preserve">
<polygon fill="#010101" points="12.929,0 9.09,7.234 0.5,8.397 6.712,14.025 5.246,21.98 12.929,18.224 20.612,21.98 19.144,14.025 
	25.361,8.397 16.771,7.234 "/>
<path fill="#010101" d="M37.028,5.13c-0.409,0.369-0.613,0.858-0.613,1.465c0,0.608,0.25,1.092,0.75,1.45
	c0.5,0.359,1.654,0.783,3.463,1.272c1.809,0.489,3.213,1.221,4.213,2.198c1,0.977,1.5,2.403,1.5,4.276
	c0,1.874-0.641,3.394-1.923,4.561c-1.281,1.166-2.968,1.75-5.058,1.75c-3.018,0-5.736-1.226-8.153-3.679l2.536-3.409
	c2.054,1.974,3.954,2.961,5.699,2.961c0.781,0,1.395-0.184,1.841-0.554c0.445-0.368,0.668-0.867,0.668-1.495
	c0-0.628-0.236-1.126-0.709-1.495c-0.473-0.369-1.409-0.742-2.809-1.121c-2.218-0.578-3.84-1.331-4.867-2.258
	c-1.027-0.928-1.541-2.383-1.541-4.367s0.65-3.514,1.95-4.591c1.299-1.077,2.922-1.616,4.867-1.616c1.272,0,2.545,0.239,3.817,0.718
	c1.272,0.479,2.381,1.157,3.327,2.034L43.832,6.64c-1.654-1.376-3.363-2.064-5.126-2.064C37.996,4.576,37.437,4.761,37.028,5.13z"/>
<path fill="#010101" d="M67.347,17.347l-1.772,4.516h-4.527l8.235-20.906H73.4l8.235,20.906h-4.527l-1.772-4.516l-1.609-4.097
	l-2.372-6.072l-2.4,6.072L67.347,17.347z"/>
<path fill="#010101" d="M113.229,0.957h4.254v20.906h-4.254V0.957z"/>
<path fill="#010101" d="M127.688,5.13c-0.409,0.369-0.614,0.858-0.614,1.465c0,0.608,0.25,1.092,0.75,1.45
	c0.499,0.359,1.654,0.783,3.463,1.272s3.213,1.221,4.213,2.198c1,0.977,1.5,2.403,1.5,4.276c0,1.874-0.641,3.394-1.923,4.561
	c-1.282,1.166-2.968,1.75-5.058,1.75c-3.018,0-5.736-1.226-8.154-3.679l2.536-3.409c2.054,1.974,3.954,2.961,5.699,2.961
	c0.781,0,1.394-0.184,1.841-0.554c0.445-0.368,0.668-0.867,0.668-1.495c0-0.628-0.236-1.126-0.709-1.495
	c-0.473-0.369-1.409-0.742-2.809-1.121c-2.218-0.578-3.84-1.331-4.867-2.258c-1.028-0.928-1.541-2.383-1.541-4.367
	s0.649-3.514,1.95-4.591c1.3-1.077,2.922-1.616,4.867-1.616c1.272,0,2.545,0.239,3.818,0.718c1.272,0.479,2.381,1.157,3.327,2.034
	l-2.154,3.409c-1.654-1.376-3.363-2.064-5.126-2.064C128.655,4.576,128.097,4.761,127.688,5.13z"/>
<polygon fill="#010101" points="58.471,0.957 48.818,0.957 48.818,4.995 54.217,4.995 54.217,21.863 58.471,21.863 58.471,8.061 
	58.471,4.995 "/>
<path fill="#010101" d="M90.521,14.386c2.417-0.977,3.627-3.14,3.627-6.49c0-2.432-0.632-4.197-1.895-5.294
	c-1.264-1.096-3.377-1.645-6.34-1.645h-2.946v4.008h3.165c1.363,0,2.318,0.209,2.864,0.628c0.545,0.418,0.818,1.192,0.818,2.317
	c0,1.127-0.264,1.95-0.79,2.468c-0.528,0.519-1.519,0.778-2.973,0.778h-3.083v4.038h2.919l4.227,6.669h5.236L90.521,14.386z"/>
<path fill="#010101" d="M108.102,12.756c-0.7-0.887-1.641-1.47-2.822-1.75c0.327-0.16,0.554-0.274,0.682-0.344
	c0.127-0.07,0.354-0.244,0.681-0.524c0.963-0.797,1.445-2.013,1.445-3.649c0-1.356-0.427-2.572-1.281-3.649
	c-0.473-0.578-1.177-1.036-2.113-1.376s-2.05-0.509-3.34-0.509h-3.129v3.948h2.011c1.254,0,2.145,0.15,2.672,0.449
	c0.527,0.299,0.791,0.912,0.791,1.839c0,0.927-0.286,1.53-0.859,1.809c-0.572,0.279-1.45,0.419-2.631,0.419h-1.984v3.679h2.475
	c1.418,0,2.449,0.155,3.095,0.463c0.645,0.31,0.968,0.947,0.968,1.914c0,0.967-0.305,1.616-0.913,1.944
	c-0.609,0.329-1.523,0.494-2.741,0.494h-2.883v3.948h4.056c2.617,0,4.454-0.648,5.508-1.944c0.909-1.116,1.364-2.402,1.364-3.858
	C109.152,14.745,108.802,13.644,108.102,12.756z"/>
</svg>
